<svg width="1934" height="1904" xmlns="http://www.w3.org/2000/svg" xmlns:xlink="http://www.w3.org/1999/xlink" xml:space="preserve" overflow="hidden"><defs><filter id="fx0" x="-10%" y="-10%" width="120%" height="120%" filterUnits="userSpaceOnUse" primitiveUnits="userSpaceOnUse"><feComponentTransfer color-interpolation-filters="sRGB"><feFuncR type="discrete" tableValues="0 0"/><feFuncG type="discrete" tableValues="0 0"/><feFuncB type="discrete" tableValues="0 0"/><feFuncA type="linear" slope="0.4" intercept="0"/></feComponentTransfer><feGaussianBlur stdDeviation="7.63889 7.63889"/></filter><filter id="fx1" x="-10%" y="-10%" width="120%" height="120%" filterUnits="userSpaceOnUse" primitiveUnits="userSpaceOnUse"><feComponentTransfer color-interpolation-filters="sRGB"><feFuncR type="discrete" tableValues="0 0"/><feFuncG type="discrete" tableValues="0 0"/><feFuncB type="discrete" tableValues="0 0"/><feFuncA type="linear" slope="0.4" intercept="0"/></feComponentTransfer><feGaussianBlur stdDeviation="7.63889 7.63889"/></filter><filter id="fx2" x="-10%" y="-10%" width="120%" height="120%" filterUnits="userSpaceOnUse" primitiveUnits="userSpaceOnUse"><feComponentTransfer color-interpolation-filters="sRGB"><feFuncR type="discrete" tableValues="0 0"/><feFuncG type="discrete" tableValues="0 0"/><feFuncB type="discrete" tableValues="0 0"/><feFuncA type="linear" slope="0.4" intercept="0"/></feComponentTransfer><feGaussianBlur stdDeviation="7.63889 7.63889"/></filter><filter id="fx3" x="-10%" y="-10%" width="120%" height="120%" filterUnits="userSpaceOnUse" primitiveUnits="userSpaceOnUse"><feComponentTransfer color-interpolation-filters="sRGB"><feFuncR type="discrete" tableValues="0 0"/><feFuncG type="discrete" tableValues="0 0"/><feFuncB type="discrete" tableValues="0 0"/><feFuncA type="linear" slope="0.4" intercept="0"/></feComponentTransfer><feGaussianBlur stdDeviation="7.63889 7.63889"/></filter><filter id="fx4" x="-10%" y="-10%" width="120%" height="120%" filterUnits="userSpaceOnUse" primitiveUnits="userSpaceOnUse"><feComponentTransfer color-interpolation-filters="sRGB"><feFuncR type="discrete" tableValues="0 0"/><feFuncG type="discrete" tableValues="0 0"/><feFuncB type="discrete" tableValues="0 0"/><feFuncA type="linear" slope="0.4" intercept="0"/></feComponentTransfer><feGaussianBlur stdDeviation="7.63889 7.63889"/></filter><filter id="fx5" x="-10%" y="-10%" width="120%" height="120%" filterUnits="userSpaceOnUse" primitiveUnits="userSpaceOnUse"><feComponentTransfer color-interpolation-filters="sRGB"><feFuncR type="discrete" tableValues="0 0"/><feFuncG type="discrete" tableValues="0 0"/><feFuncB type="discrete" tableValues="0 0"/><feFuncA type="linear" slope="0.4" intercept="0"/></feComponentTransfer><feGaussianBlur stdDeviation="7.63889 7.63889"/></filter><filter id="fx6" x="-10%" y="-10%" width="120%" height="120%" filterUnits="userSpaceOnUse" primitiveUnits="userSpaceOnUse"><feComponentTransfer color-interpolation-filters="sRGB"><feFuncR type="discrete" tableValues="0 0"/><feFuncG type="discrete" tableValues="0 0"/><feFuncB type="discrete" tableValues="0 0"/><feFuncA type="linear" slope="0.4" intercept="0"/></feComponentTransfer><feGaussianBlur stdDeviation="7.63889 7.63889"/></filter><clipPath id="clip7"><rect x="1247" y="285" width="1934" height="1904"/></clipPath><clipPath id="clip8"><rect x="-7" y="-7" width="1519" height="1519"/></clipPath><clipPath id="clip9"><rect x="0" y="0" width="1504" height="1504"/></clipPath><clipPath id="clip10"><rect x="-7" y="-7" width="1916" height="777"/></clipPath><clipPath id="clip11"><rect x="0" y="0" width="1903" height="764"/></clipPath><clipPath id="clip12"><rect x="-7" y="-7" width="1472" height="774"/></clipPath><clipPath id="clip13"><rect x="0" y="0" width="1460" height="761"/></clipPath><clipPath id="clip14"><rect x="-7" y="-7" width="1920" height="1920"/></clipPath><clipPath id="clip15"><rect x="0" y="0" width="1905" height="1904"/></clipPath><clipPath id="clip16"><rect x="-7" y="-7" width="291" height="322"/></clipPath><clipPath id="clip17"><rect x="0" y="0" width="275" height="309"/></clipPath><clipPath id="clip18"><rect x="-7" y="-7" width="291" height="322"/></clipPath><clipPath id="clip19"><rect x="0" y="0" width="275" height="309"/></clipPath><clipPath id="clip20"><rect x="-7" y="-7" width="291" height="322"/></clipPath><clipPath id="clip21"><rect x="0" y="0" width="275" height="309"/></clipPath></defs><g clip-path="url(#clip7)" transform="translate(-1247 -285)"><g clip-path="url(#clip8)" filter="url(#fx0)" transform="translate(1312 349)"><g clip-path="url(#clip9)"><path d="M1480.28 752C1480.28 1154.22 1154.22 1480.28 752 1480.28 349.782 1480.28 23.7198 1154.22 23.7198 752 23.7198 349.782 349.782 23.7201 752 23.7201 1154.22 23.7201 1480.28 349.782 1480.28 752Z" fill="#F4F3FA" fill-rule="evenodd"/></g></g><path d="M2778 1101C2778 1495.33 2458.33 1815 2064 1815 1669.67 1815 1350 1495.33 1350 1101 1350 706.669 1669.67 387 2064 387 2458.33 387 2778 706.669 2778 1101Z" fill="#F4F3FA" fill-rule="evenodd"/><g clip-path="url(#clip10)" filter="url(#fx1)" transform="translate(1278 733)"><g clip-path="url(#clip11)"><path d="M1879.19 112.845C1780.28 112.845 1681.36 112.845 1582.45 113.196 1461.44 112.845 1316.92 96.7157 1234.84 205.412 1152.06 318.315 1126.46 459.97 1060.52 582.341 1044.73 606.184 1011.76 688.933 977.386 650.012 867.949 506.604 847.956 316.912 760.968 160.18 510.525-345.08 359.698 723.996 229.566 643.701 166.429 568.315 137.317 471.19 102.241 381.078 93.1208 349.521 55.2388 385.636 33.8422 386.688 24.7225 389.844 21.5658 393.701 25.424 403.519 68.9182 507.656 99.7851 625.819 182.214 707.166 348.474 825.679 426.343 482.411 480.71 380.026 512.279 309.198 537.884 235.917 575.416 167.543 587.341 151.064 612.596 90.7552 637.149 113.546 774.998 289.563 776.401 542.369 926.877 711.022 1040.87 807.095 1126.81 641.247 1162.94 550.433 1323.59 124.065 1309.91 197.347 1739.24 193.841 1739.24 193.49 1739.24 193.14 1739.24 192.789 1785.19 192.789 1831.14 192.789 1876.74 192.789 1877.09 165.79 1878.84 139.142 1879.19 112.845Z" fill="#BDD7EC" fill-rule="evenodd"/></g></g><path d="M3139 851.122C3042.03 851.122 2945.05 851.122 2848.08 851.466 2729.44 851.122 2587.76 835.31 2507.29 941.874 2426.13 1052.56 2401.03 1191.44 2336.38 1311.41 2320.9 1334.79 2288.58 1415.91 2254.88 1377.76 2147.59 1237.16 2127.99 1051.19 2042.7 897.53 1797.17 402.176 1649.3 1450.29 1521.72 1371.57 1459.82 1297.66 1431.28 1202.44 1396.89 1114.1 1387.95 1083.16 1350.81 1118.56 1329.84 1119.6 1320.89 1122.69 1317.8 1126.47 1321.58 1136.1 1364.22 1238.19 1394.49 1354.04 1475.3 1433.79 1638.3 1549.98 1714.64 1213.44 1767.94 1113.06 1798.89 1043.63 1823.99 971.781 1860.79 904.748 1872.48 888.592 1897.24 829.466 1921.31 851.81 2056.46 1024.38 2057.83 1272.22 2205.36 1437.57 2317.12 1531.76 2401.37 1369.16 2436.79 1280.13 2594.29 862.123 2580.88 933.968 3001.79 930.53 3001.79 930.186 3001.79 929.843 3001.79 929.499 3046.84 929.499 3091.89 929.499 3136.59 929.499 3136.94 903.03 3138.66 876.904 3139 851.122Z" fill="#BDD7EC" fill-rule="evenodd"/><g clip-path="url(#clip12)" filter="url(#fx2)" transform="translate(1374 715)"><g clip-path="url(#clip13)"><path d="M1392.73 139.158C1362.94 154.248 1336.3 175.304 1313.16 203.378 1272.51 253.21 1251.83 313.57 1227.29 371.824 1197.85 441.658 1173.66 513.248 1138.61 580.626 1126 604.84 1112.68 629.054 1093.05 648.706 1077.63 664.147 1070.97 664.147 1055.55 648.355 1035.92 628.001 1021.9 603.436 1009.63 578.169 975.631 507.632 946.539 435.692 923.055 360.594 900.973 291.11 871.531 223.732 839.285 158.108 820.358 119.857 800.029 82.6589 768.834 52.8299 728.176 14.2278 680.157 14.5789 639.499 52.8299 618.819 72.4818 603.046 95.6431 589.026 119.857 538.905 206.537 507.71 301.638 467.052 392.528 441.114 450.782 420.785 511.493 391.343 568.694 378.024 594.663 363.654 620.632 342.623 641.687 331.407 652.917 320.892 653.97 308.975 641.687 294.254 626.597 283.038 609.051 272.873 590.803 235.37 523.424 208.381 451.133 182.093 378.842 177.887 366.911 173.331 361.647 160.011 367.612 145.29 374.28 129.518 379.193 113.745 384.106 104.632 387.264 101.478 391.124 105.333 400.95 134.775 478.506 163.516 556.061 203.824 629.054 219.247 657.128 237.122 683.799 262.008 704.854 300.563 738.192 347.53 739.245 387.137 706.96 414.126 685.202 432.702 656.777 449.526 627.299 495.442 547.989 523.132 460.609 560.285 377.438 591.83 306.551 617.417 233.207 654.921 164.776 665.436 145.124 677.353 126.525 693.476 110.733 701.888 102.311 708.548 102.311 716.609 110.733 728.176 122.314 737.99 135.298 746.051 149.686 790.916 231.803 825.966 317.43 854.707 406.214 882.397 491.139 915.695 574.309 961.611 651.513 973.878 672.218 987.898 692.221 1005.77 708.714 1022.6 723.453 1040.47 734.332 1064.66 736.438 1111.63 741 1141.42 716.786 1167.36 683.448 1199.25 642.389 1220.98 595.364 1241.66 547.989 1278.82 463.065 1307.91 374.982 1349.27 291.812 1369.95 250.753 1398.34 220.223 1435.84 204.08 1424.97 181.621 1410.6 159.863 1392.73 139.158Z" fill="#E97776" fill-rule="evenodd"/><path d="M421.231 504.353C411.41 527.478 400.886 550.603 389.311 573.028 376.684 597.204 363.354 621.381 343.711 641.002 328.277 656.419 321.613 656.419 306.179 640.652 286.536 620.33 272.505 595.803 260.228 570.575 226.203 500.148 197.09 428.32 173.588 353.338 151.49 283.962 122.025 216.689 89.7542 151.167 84.1419 139.605 78.1786 128.042 71.8648 116.83 54.6773 143.459 39.594 171.139 24.1602 198.82 55.7294 263.64 81.6863 330.563 104.487 399.589 132.197 484.381 165.52 567.422 211.471 644.506 223.748 665.179 237.779 685.15 255.668 701.618 272.505 716.334 290.394 727.196 314.597 729.298 361.6 733.854 391.416 709.677 417.373 676.391 448.24 636.797 469.287 591.949 489.28 546.399 468.234 530.281 445.785 516.266 421.231 504.353Z" fill="#E97776" fill-rule="evenodd"/></g></g><path d="M2753.73 858.89C2724.53 873.685 2698.41 894.327 2675.73 921.851 2635.87 970.706 2615.59 1029.88 2591.54 1086.99 2562.68 1155.46 2538.97 1225.64 2504.6 1291.7 2492.23 1315.44 2479.17 1339.18 2459.93 1358.45 2444.81 1373.58 2438.28 1373.58 2423.16 1358.1 2403.92 1338.15 2390.17 1314.06 2378.15 1289.29 2344.81 1220.14 2316.29 1149.61 2293.27 1075.98 2271.62 1007.86 2242.76 941.806 2211.14 877.469 2192.59 839.968 2172.66 803.499 2142.07 774.255 2102.21 736.41 2055.13 736.754 2015.27 774.255 1995 793.521 1979.54 816.229 1965.79 839.968 1916.65 924.948 1886.07 1018.18 1846.21 1107.29 1820.78 1164.4 1800.85 1223.92 1771.98 1280 1758.93 1305.46 1744.84 1330.92 1724.22 1351.57 1713.22 1362.58 1702.91 1363.61 1691.23 1351.57 1676.8 1336.77 1665.8 1319.57 1655.84 1301.68 1619.07 1235.62 1592.61 1164.75 1566.84 1093.87 1562.71 1082.18 1558.25 1077.02 1545.19 1082.87 1530.76 1089.4 1515.29 1094.22 1499.83 1099.04 1490.89 1102.13 1487.8 1105.92 1491.58 1115.55 1520.45 1191.58 1548.62 1267.62 1588.14 1339.18 1603.26 1366.7 1620.79 1392.85 1645.18 1413.49 1682.98 1446.18 1729.03 1447.21 1767.86 1415.56 1794.32 1394.23 1812.53 1366.36 1829.03 1337.46 1874.04 1259.71 1901.19 1174.04 1937.61 1092.5 1968.54 1023 1993.62 951.095 2030.39 884.006 2040.7 864.739 2052.39 846.505 2068.19 831.023 2076.44 822.766 2082.97 822.766 2090.87 831.023 2102.21 842.376 2111.83 855.106 2119.74 869.212 2163.72 949.719 2198.08 1033.67 2226.26 1120.71 2253.41 1203.97 2286.05 1285.51 2331.07 1361.2 2343.1 1381.5 2356.84 1401.11 2374.37 1417.28 2390.86 1431.73 2408.39 1442.39 2432.1 1444.46 2478.14 1448.93 2507.35 1425.19 2532.78 1392.51 2564.05 1352.25 2585.35 1306.15 2605.63 1259.71 2642.05 1176.45 2670.58 1090.09 2711.12 1008.55 2731.4 968.297 2759.23 938.365 2796 922.539 2785.35 900.52 2771.26 879.189 2753.73 858.89Z" fill="#E97776" fill-rule="evenodd"/><path d="M1801.29 1216.92C1791.66 1239.6 1781.34 1262.27 1769.99 1284.25 1757.61 1307.96 1744.54 1331.66 1725.29 1350.89 1710.15 1366.01 1703.62 1366.01 1688.49 1350.55 1669.23 1330.63 1655.48 1306.58 1643.44 1281.85 1610.08 1212.8 1581.54 1142.38 1558.5 1068.87 1536.83 1000.86 1507.95 934.901 1476.31 870.664 1470.81 859.329 1464.96 847.992 1458.77 837 1441.92 863.107 1427.13 890.245 1412 917.382 1442.95 980.931 1468.4 1046.54 1490.75 1114.21 1517.92 1197.34 1550.59 1278.76 1595.64 1354.33 1607.67 1374.6 1621.43 1394.18 1638.97 1410.32 1655.48 1424.75 1673.01 1435.4 1696.74 1437.46 1742.82 1441.93 1772.05 1418.22 1797.5 1385.59 1827.77 1346.77 1848.4 1302.8 1868 1258.15 1847.37 1242.34 1825.36 1228.6 1801.29 1216.92Z" fill="#E97776" fill-rule="evenodd"/><g clip-path="url(#clip14)" filter="url(#fx3)" transform="translate(1247 285)"><g clip-path="url(#clip15)"><path d="M1772.43 1867.84 1270.35 1365.76C1253.87 1349.28 1253.87 1322.63 1270.35 1306.16L1307.17 1269.34C1323.64 1252.86 1350.29 1252.86 1366.77 1269.34L1868.85 1771.42C1885.33 1787.9 1885.33 1814.55 1868.85 1831.03L1832.04 1867.84C1815.56 1884.32 1788.91 1884.32 1772.43 1867.84Z" fill="#575756" fill-rule="evenodd"/><path d="M1541.55 813.282C1541.55 1215.5 1215.49 1541.56 813.272 1541.56 411.054 1541.56 84.9915 1215.5 84.9915 813.282 84.9915 411.064 411.054 85.0016 813.272 85.0016 1215.49 85.0016 1541.55 411.064 1541.55 813.282Z" stroke="#575756" stroke-width="123" stroke-miterlimit="8" fill="none" fill-rule="evenodd"/></g></g><path d="M3003.35 2134.88 2511.12 1642.65C2494.96 1626.49 2494.96 1600.37 2511.12 1584.21L2547.21 1548.12C2563.37 1531.96 2589.49 1531.96 2605.65 1548.12L3097.88 2040.35C3114.04 2056.51 3114.04 2082.63 3097.88 2098.79L3061.79 2134.88C3045.63 2151.04 3019.51 2151.04 3003.35 2134.88Z" fill="#575756" fill-rule="evenodd"/><path d="M2777 1101C2777 1495.33 2457.33 1815 2063 1815 1668.67 1815 1349 1495.33 1349 1101 1349 706.669 1668.67 387 2063 387 2457.33 387 2777 706.669 2777 1101Z" stroke="#575756" stroke-width="120.312" stroke-miterlimit="8" fill="none" fill-rule="evenodd"/><g clip-path="url(#clip16)" filter="url(#fx4)" transform="translate(1759 649)"><g clip-path="url(#clip17)"><path d="M107.755 24.4501C105.656 126.67 91.6581 148.724 23.7701 170.428 93.7578 174.279 113.354 200.884 115.104 284.55 144.499 208.935 165.845 183.031 251.23 250.593 180.542 164.827 201.889 149.774 237.232 60.5072 173.194 135.421 143.799 120.719 107.755 24.4501L107.755 24.4501Z" fill="#FFD966" fill-rule="evenodd"/></g></g><path d="M1867.34 676C1865.28 776.215 1851.56 797.837 1785 819.116 1853.62 822.891 1872.83 848.975 1874.54 931 1903.36 856.868 1924.29 831.471 2008 897.709 1938.7 813.625 1959.63 798.867 1994.28 711.35 1931.49 784.795 1902.68 770.381 1867.34 676L1867.34 676Z" fill="#FFD966" fill-rule="evenodd"/><g clip-path="url(#clip18)" filter="url(#fx5)" transform="translate(2130 1265)"><g clip-path="url(#clip19)"><path d="M107.755 24.4502C105.656 126.67 91.6581 148.724 23.77 170.428 93.7577 174.279 113.354 200.884 115.104 284.55 144.499 208.936 165.845 183.031 251.23 250.594 180.543 164.827 201.889 149.774 237.233 60.5073 173.194 135.422 143.799 120.719 107.755 24.4502L107.755 24.4502Z" fill="#FFD966" fill-rule="evenodd"/></g></g><path d="M2238.34 1292C2236.28 1392.22 2222.56 1413.84 2156 1435.12 2224.62 1438.89 2243.83 1464.97 2245.54 1547 2274.36 1472.87 2295.29 1447.47 2379 1513.71 2309.7 1429.62 2330.63 1414.87 2365.28 1327.35 2302.49 1400.8 2273.68 1386.38 2238.34 1292L2238.34 1292Z" fill="#FFD966" fill-rule="evenodd"/><g clip-path="url(#clip20)" filter="url(#fx6)" transform="translate(2447 746)"><g clip-path="url(#clip21)"><path d="M107.755 24.4501C105.656 126.67 91.6581 148.724 23.77 170.428 93.7577 174.279 113.354 200.884 115.104 284.551 144.499 208.936 165.845 183.031 251.23 250.594 180.543 164.827 201.889 149.774 237.233 60.5072 173.194 135.422 143.799 120.719 107.755 24.4501L107.755 24.4501Z" fill="#FFD966" fill-rule="evenodd"/></g></g><path d="M2555.34 773C2553.28 873.216 2539.56 894.838 2473 916.116 2541.62 919.891 2560.83 945.975 2562.54 1028 2591.36 953.869 2612.29 928.471 2696 994.71 2626.7 910.625 2647.63 895.867 2682.28 808.35 2619.49 881.796 2590.68 867.381 2555.34 773L2555.34 773Z" fill="#FFD966" fill-rule="evenodd"/></g></svg>